<svg width="345" height="533" viewBox="0 0 345 533" fill="none" xmlns="http://www.w3.org/2000/svg">
<g clip-path="url(#clip0)">
<path d="M290.236 147.342H245.665C245.249 147.342 244.85 147.508 244.556 147.802C244.262 148.096 244.097 148.496 244.097 148.912V170.882C244.097 171.298 244.262 171.697 244.556 171.992C244.85 172.286 245.249 172.451 245.665 172.451H290.236C290.652 172.451 291.051 172.286 291.345 171.992C291.639 171.697 291.804 171.298 291.804 170.882V148.912C291.804 148.496 291.639 148.096 291.345 147.802C291.051 147.508 290.652 147.342 290.236 147.342Z" stroke="#AADAF1" stroke-width="2" stroke-linecap="round" stroke-linejoin="round"/>
<path d="M266.363 122.179H221.799C221.383 122.179 220.984 122.344 220.69 122.638C220.396 122.932 220.231 123.332 220.231 123.748V145.718C220.231 146.134 220.396 146.533 220.69 146.828C220.984 147.122 221.383 147.287 221.799 147.287H266.363C266.779 147.287 267.177 147.122 267.472 146.828C267.766 146.533 267.931 146.134 267.931 145.718V123.748C267.931 123.332 267.766 122.932 267.472 122.638C267.177 122.344 266.779 122.179 266.363 122.179Z" stroke="#AADAF1" stroke-width="2" stroke-linecap="round" stroke-linejoin="round"/>
<path d="M242.49 147.342H197.926C197.51 147.342 197.111 147.508 196.817 147.802C196.523 148.096 196.358 148.496 196.358 148.912V170.882C196.358 171.298 196.523 171.697 196.817 171.992C197.111 172.286 197.51 172.451 197.926 172.451H242.49C242.905 172.451 243.304 172.286 243.598 171.992C243.892 171.697 244.058 171.298 244.058 170.882V148.912C244.058 148.496 243.892 148.096 243.598 147.802C243.304 147.508 242.905 147.342 242.49 147.342Z" stroke="#AADAF1" stroke-width="2" stroke-linecap="round" stroke-linejoin="round"/>
<path d="M313.349 172.498H268.786C268.37 172.498 267.971 172.664 267.677 172.958C267.383 173.252 267.218 173.652 267.218 174.068V196.038C267.218 196.454 267.383 196.853 267.677 197.148C267.971 197.442 268.37 197.607 268.786 197.607H313.349C313.765 197.607 314.164 197.442 314.458 197.148C314.752 196.853 314.917 196.454 314.917 196.038V174.068C314.917 173.652 314.752 173.252 314.458 172.958C314.164 172.664 313.765 172.498 313.349 172.498Z" stroke="#AADAF1" stroke-width="2" stroke-linecap="round" stroke-linejoin="round"/>
<path fill-rule="evenodd" clip-rule="evenodd" d="M3.75545 465.088H154.797C155.29 465.087 155.779 465.184 156.235 465.372C156.691 465.561 157.106 465.837 157.455 466.187C157.804 466.536 158.08 466.951 158.269 467.407C158.457 467.864 158.553 468.353 158.552 468.847C158.553 469.341 158.457 469.83 158.269 470.286C158.08 470.743 157.804 471.157 157.455 471.507C157.106 471.856 156.691 472.133 156.235 472.321C155.779 472.51 155.29 472.606 154.797 472.605H3.75545C2.75945 472.605 1.80423 472.209 1.09995 471.504C0.395663 470.8 0 469.844 0 468.847H0C0 467.85 0.395663 466.894 1.09995 466.189C1.80423 465.484 2.75945 465.088 3.75545 465.088Z" fill="white"/>
<path fill-rule="evenodd" clip-rule="evenodd" d="M114.757 487.529H456.245C457.241 487.531 458.197 487.929 458.901 488.635C459.605 489.341 460 490.298 460 491.296C459.998 492.292 459.602 493.247 458.898 493.951C458.194 494.655 457.24 495.052 456.245 495.054H114.757C113.762 495.052 112.808 494.655 112.104 493.951C111.4 493.247 111.004 492.292 111.001 491.296C111.001 490.298 111.397 489.341 112.101 488.635C112.805 487.929 113.76 487.531 114.757 487.529Z" fill="#DEDEDE"/>
<path fill-rule="evenodd" clip-rule="evenodd" d="M59.3267 444.428L49.3932 458.356L69.8561 484.022L79.2643 467.544L59.3267 444.428Z" fill="#F77F89"/>
<path fill-rule="evenodd" clip-rule="evenodd" d="M48.4759 452.024L24.9553 479.22L61.9062 522.376C61.9062 522.376 86.4303 522.109 94.1764 522.109C94.0196 512.693 87.183 493.187 68.147 493.94C71.9887 487.192 74.7171 481.629 74.7171 481.629L48.4759 452.024Z" fill="#6367FD"/>
<path d="M68.1313 493.963C57.4922 490.676 52.6548 494.96 45.1909 502.885C39.9772 508.425 29.1107 507.954 22.4543 504.776" stroke="#4C4FD9" stroke-width="2" stroke-linecap="round" stroke-linejoin="round"/>
<path d="M43.7483 528.551C47.2545 530.058 50.8751 531.283 54.5756 532.215C64.3131 523.584 70.0757 503.097 68.2489 493.963" stroke="#4C4FD9" stroke-width="2" stroke-linecap="round" stroke-linejoin="round"/>
<path d="M38.9736 462.726C41.2741 464.469 43.0577 466.805 44.1336 469.484C45.2094 472.164 45.5369 475.085 45.081 477.936C44.6251 480.788 43.403 483.461 41.5455 485.671C39.688 487.88 37.265 489.542 34.536 490.48" stroke="#4C4FD9" stroke-width="2" stroke-linecap="round" stroke-linejoin="round"/>
<path d="M29.0558 474.457L65.4265 514.207L92.3732 512.638" stroke="#4C4FD9" stroke-width="2" stroke-linecap="round" stroke-linejoin="round"/>
<path fill-rule="evenodd" clip-rule="evenodd" d="M117.964 329.351L55.7751 443.416L79.5858 471.31L191.959 355.26L167.294 320.374L117.964 329.351Z" fill="#F7D167"/>
<path d="M92.5144 457.964L64.7758 426.899" stroke="#FF3274" stroke-width="2" stroke-linecap="round" stroke-linejoin="round"/>
<path fill-rule="evenodd" clip-rule="evenodd" d="M167.286 320.382L117.971 329.359L92.8828 375.41L135.949 374.382L149.991 398.604L191.959 355.276L167.286 320.382Z" fill="#BF9111"/>
<path d="M66.2966 455.743C91.7773 425.871 169.787 334.828 169.787 334.828" stroke="#FF3274" stroke-width="2" stroke-linecap="round" stroke-linejoin="round"/>
<path fill-rule="evenodd" clip-rule="evenodd" d="M235.661 481.856L243.172 497.549L276.837 491.453L271.271 472.55L235.661 481.856Z" fill="#F77F89"/>
<path fill-rule="evenodd" clip-rule="evenodd" d="M238.177 497.612L249.679 530.568C249.679 530.568 316.219 517.228 321.275 515.918C311.867 493.791 292.565 497.502 284.097 499.621C281.974 495.59 280.079 491.443 278.421 487.2L238.177 497.612Z" fill="#6367FD"/>
<path d="M283.533 492.041C284.897 487.6 288.065 484.642 290.589 485.426C293.114 486.211 294.086 490.433 292.722 494.842C291.357 499.252 288.19 502.234 285.665 501.457C283.141 500.68 282.169 496.474 283.533 492.041Z" stroke="#4C4FD9" stroke-width="2" stroke-linecap="round" stroke-linejoin="round"/>
<path d="M294.682 491.476C298.21 487.859 302.6 486.721 304.498 488.942C306.395 491.162 305.062 495.894 301.534 499.511C298.006 503.128 293.615 504.274 291.718 502.053C289.821 499.833 291.154 495.117 294.682 491.476Z" stroke="#4C4FD9" stroke-width="2" stroke-linecap="round" stroke-linejoin="round"/>
<path fill-rule="evenodd" clip-rule="evenodd" d="M263.987 232.728C268.158 236.102 272.486 240.12 278.045 242.223C286.355 244.239 301.565 260.921 301.565 264.515C301.565 267.92 298.531 269.066 296.642 269.223C295.011 269.325 291.538 265.551 290.66 264.476C292.173 267.928 293.051 272.605 291.373 274.072C289.695 275.539 287.28 276.049 285.634 274.15C282.929 271.012 283.596 267.449 283.345 265.362C282.012 262.812 278.382 257.139 276.845 256.449C275.771 256.503 274.156 256.88 273.85 258.599C273.544 260.317 277.535 264.154 277.982 265.755C277.982 267.787 275.763 270.368 273.85 269.858C271.671 269.278 264.928 262.726 263.438 260.937C261.431 258.528 260.522 253.279 259.448 251.521C258.374 249.763 254.203 246.028 253.426 245.244C252.65 244.459 259.824 229.347 263.987 232.728Z" fill="#F77F89"/>
<path fill-rule="evenodd" clip-rule="evenodd" d="M222.356 150.473C237.338 163.208 259.761 213.363 274.172 225.706C272.666 233.45 248.793 262.294 231.921 255.421C210.784 246.805 211.042 140.861 222.356 150.473Z" fill="#3B4161"/>
<path fill-rule="evenodd" clip-rule="evenodd" d="M233.999 221.963L278.421 474.41L231.882 485.395L170.767 324.902L185.946 213.363L233.999 221.963Z" fill="#F7D167"/>
<path d="M194.774 387.941L172.923 330.551" stroke="#FF3274" stroke-width="2" stroke-linecap="round" stroke-linejoin="round"/>
<path d="M252.117 480.624L180.324 254.675" stroke="#FF3274" stroke-width="2" stroke-linecap="round" stroke-linejoin="round"/>
<path d="M237.934 244.357C231.662 246.986 199.517 252.925 187.098 251.623" stroke="#FF3274" stroke-width="2" stroke-linecap="round" stroke-linejoin="round"/>
<path fill-rule="evenodd" clip-rule="evenodd" d="M103.138 184.111L187.428 193.064C192.453 193.598 196.052 198.337 195.503 203.657L181.814 332.693C181.25 338.006 176.726 341.882 171.7 341.325L87.4103 332.403C82.3848 331.87 78.7861 327.13 79.3349 321.81L93.0161 192.774C93.5806 187.454 98.1122 183.609 103.138 184.111Z" fill="#6367FD"/>
<path d="M105.905 262.734C105.905 256.371 107.791 250.151 111.323 244.861C114.855 239.57 119.875 235.447 125.749 233.012C131.623 230.577 138.086 229.94 144.321 231.181C150.557 232.422 156.284 235.486 160.78 239.985C165.276 244.485 168.337 250.217 169.577 256.457C170.818 262.698 170.181 269.166 167.748 275.045C165.315 280.923 161.195 285.948 155.909 289.483C150.623 293.018 144.408 294.904 138.05 294.904C129.525 294.904 121.349 291.515 115.32 285.482C109.292 279.449 105.905 271.266 105.905 262.734Z" stroke="#4C4FD9" stroke-width="2" stroke-linecap="round" stroke-linejoin="round"/>
<path fill-rule="evenodd" clip-rule="evenodd" d="M135.98 39.9389C135.98 31.9276 140.489 25.4307 146.055 25.4307C151.622 25.4307 156.138 31.9276 156.138 39.9389C156.138 47.9502 151.622 54.4472 146.055 54.4472C140.489 54.4472 135.98 47.9502 135.98 39.9389Z" fill="#F77F89"/>
<path fill-rule="evenodd" clip-rule="evenodd" d="M141.657 47.5501C141.657 41.1761 143.545 34.9453 147.084 29.6456C150.622 24.346 155.652 20.2155 161.536 17.7766C167.42 15.3378 173.895 14.7001 180.141 15.9441C186.388 17.1882 192.125 20.2582 196.628 24.7658C201.131 29.2735 204.197 35.0163 205.438 41.268C206.68 47.5197 206.041 53.9995 203.603 59.8878C201.165 65.7762 197.036 70.8086 191.74 74.3487C186.444 77.8887 180.217 79.7774 173.849 79.7759C169.62 79.7759 165.434 78.9423 161.527 77.3227C157.621 75.7031 154.072 73.3292 151.083 70.3367C148.093 67.3441 145.722 63.7915 144.105 59.8818C142.488 55.972 141.656 51.7817 141.657 47.5501Z" fill="#F77F89"/>
<path fill-rule="evenodd" clip-rule="evenodd" d="M130.759 253.192C129.261 258.19 124.408 268.587 129.026 287.191C120.277 300.727 124.361 310.26 144.401 312.653C147.772 308.534 151.151 305.835 154.914 299.887C156.138 294.536 156.028 286.32 156.138 284.092C156.349 279.588 149.756 261.769 151.394 253.765C153.033 245.762 132.256 248.186 130.759 253.192Z" fill="#F77F89"/>
<path fill-rule="evenodd" clip-rule="evenodd" d="M170.712 90.5884C124.393 90.5884 106.76 188.003 111.817 250.336C121.421 256.402 159.752 258.763 170.712 255.884C173.065 244.938 173.849 199.13 174.374 191.675C199.956 194.186 195.542 198.149 192.453 232.415C205.782 232.878 223.736 229.276 237.142 223.642C239.024 200.15 225.225 90.5884 170.712 90.5884Z" fill="#3B4161"/>
<path d="M105.905 190.02L112.021 131.445C112.977 122.283 117.532 113.875 124.682 108.073C131.832 102.271 140.992 99.5492 150.148 100.506L156.71 101.189C165.865 102.146 174.266 106.704 180.063 113.86C185.861 121.016 188.58 130.184 187.624 139.347L181.352 199.569" stroke="#6367FD" stroke-width="6.77" stroke-linecap="round" stroke-linejoin="round"/>
<path fill-rule="evenodd" clip-rule="evenodd" d="M151.763 66.4054C154.178 76.7863 154.781 91.4044 154.381 97.1481C160.52 100.773 176.436 103.292 184.088 93.013C180.466 84.2484 179.658 80.0113 179.964 74.9659C180.27 69.9206 149.348 56.0244 151.763 66.4054Z" fill="#F77F89"/>
<path fill-rule="evenodd" clip-rule="evenodd" d="M162.026 77.5317C161.343 71.9607 165.35 58.8491 167.639 57.0287C189.16 57.8133 202.52 42.4734 204.692 38.2755C206.701 40.9446 208.164 43.9844 208.996 47.2205C209.553 49.3548 209.067 50.8535 205.421 53.9136C204.496 66.4916 193.088 86.4611 162.026 77.5317Z" fill="white"/>
<path d="M169.348 58.3548C169.348 58.3548 149.748 42.3008 144.056 41.5161" stroke="white" stroke-width="3.05" stroke-linecap="round" stroke-linejoin="round"/>
<path fill-rule="evenodd" clip-rule="evenodd" d="M185.334 41.5397C185.334 38.7463 186.244 36.4786 187.365 36.4786C188.486 36.4786 189.396 38.7463 189.396 41.5397C189.396 44.333 188.486 46.6007 187.365 46.6007C186.244 46.6007 185.334 44.333 185.334 41.5397Z" fill="#CB5D66"/>
<path d="M172.437 238.464C164.981 239.539 124.416 237.782 111.001 232.258" stroke="#737999" stroke-width="2" stroke-linecap="round" stroke-linejoin="round"/>
<path d="M174.374 191.675C173.849 176.32 187.812 126.463 160.214 105.96" stroke="#737999" stroke-width="2" stroke-linecap="round" stroke-linejoin="round"/>
<path d="M174.382 191.589L160.214 197.662" stroke="#737999" stroke-width="2" stroke-linecap="round" stroke-linejoin="round"/>
<path d="M160.834 190.239L174.421 191.197" stroke="#737999" stroke-width="2" stroke-linecap="round" stroke-linejoin="round"/>
<path d="M162.849 180.674L174.437 191.095" stroke="#737999" stroke-width="2" stroke-linecap="round" stroke-linejoin="round"/>
<path d="M237.182 223.627C237.966 213.355 235.802 186.638 228.557 159.818" stroke="#737999" stroke-width="2" stroke-linecap="round" stroke-linejoin="round"/>
<path d="M263.517 213.261C257.245 224.341 242.348 236.307 236.939 238.684" stroke="#737999" stroke-width="2" stroke-linecap="round" stroke-linejoin="round"/>
<path d="M219.91 248.602C219.251 244.632 216.883 229.888 216.883 229.888" stroke="#FF3274" stroke-width="2" stroke-linecap="round" stroke-linejoin="round"/>
<path d="M275.654 458.709L224.779 466.744" stroke="#FF3274" stroke-width="2" stroke-linecap="round" stroke-linejoin="round"/>
<path d="M261.079 375.308C260.178 375.409 259.272 375.459 258.366 375.457C252.363 375.458 246.567 373.258 242.074 369.273C237.582 365.288 234.703 359.794 233.983 353.83C233.263 347.865 234.751 341.843 238.166 336.902C241.581 331.961 246.686 328.443 252.517 327.013" stroke="#FF3274" stroke-width="2" stroke-linecap="round" stroke-linejoin="round"/>
<path d="M247.491 524.314L318.657 510.81" stroke="#4C4FD9" stroke-width="2" stroke-linecap="round" stroke-linejoin="round"/>
<path d="M241.8 508.833C244.211 507.886 246.818 507.543 249.392 507.833C251.967 508.124 254.431 509.039 256.572 510.5C258.712 511.961 260.464 513.923 261.674 516.216C262.884 518.508 263.517 521.062 263.517 523.655C263.519 525.037 263.343 526.414 262.992 527.751" stroke="#4C4FD9" stroke-width="2" stroke-linecap="round" stroke-linejoin="round"/>
<path d="M162.363 76.3547C159.901 75.421 150.006 71.9685 144.863 61.5954" stroke="white" stroke-width="3.05" stroke-linecap="round" stroke-linejoin="round"/>
<path fill-rule="evenodd" clip-rule="evenodd" d="M135.4 53.6861C135.399 51.6322 136.006 49.6241 137.145 47.9158C138.284 46.2074 139.904 44.8756 141.8 44.089C143.695 43.3023 145.782 43.096 147.795 43.4963C149.807 43.8966 151.656 44.8855 153.107 46.3378C154.558 47.79 155.547 49.6405 155.946 51.6549C156.346 53.6694 156.14 55.7573 155.354 57.6545C154.568 59.5517 153.238 61.1729 151.531 62.313C149.824 63.453 147.817 64.0607 145.765 64.0592C143.017 64.0571 140.382 62.9636 138.438 61.0187C136.495 59.0738 135.402 56.4366 135.4 53.6861Z" fill="#F77F89"/>
<path d="M155.683 56.7227C155.032 58.8467 153.717 60.7057 151.932 62.0263C150.146 63.3469 147.985 64.0595 145.765 64.0592" stroke="#CB5D66" stroke-width="2" stroke-linecap="round" stroke-linejoin="round"/>
<path d="M137.588 47.3068C139.084 45.3831 141.211 44.0494 143.593 43.5405" stroke="#CB5D66" stroke-width="2" stroke-linecap="round" stroke-linejoin="round"/>
<path fill-rule="evenodd" clip-rule="evenodd" d="M162.292 1.67918C157.853 2.70245 153.658 4.59091 149.948 7.23672C146.238 9.88254 143.085 13.2339 140.67 17.0993C138.254 20.9647 136.623 25.2686 135.869 29.765C135.116 34.2614 135.255 38.8624 136.278 43.3051L203.884 27.714C202.862 23.2711 200.975 19.0733 198.331 15.3603C195.688 11.6473 192.339 8.49188 188.477 6.07424C184.614 3.65661 180.314 2.02412 175.821 1.27001C171.328 0.515897 166.731 0.654933 162.292 1.67918Z" fill="#F2E283"/>
<path fill-rule="evenodd" clip-rule="evenodd" d="M178.184 22.7001L227.036 11.4324C231.082 10.4909 234.877 12.068 235.567 14.932C236.225 17.8038 233.481 20.8875 229.428 21.8291L180.575 33.0968C176.522 34.0305 172.735 32.4612 172.045 29.5893C171.379 26.7175 174.131 23.6338 178.184 22.7001Z" fill="#F2E283"/>
<path d="M127.599 306.345C129.687 304.129 131.558 301.72 133.189 299.149" stroke="#CB5D66" stroke-width="2" stroke-linecap="round" stroke-linejoin="round"/>
<path d="M136.255 311.045C139.548 307.859 144.369 301.135 146.831 297.102" stroke="#CB5D66" stroke-width="2" stroke-linecap="round" stroke-linejoin="round"/>
<path d="M274.791 257.053C279.73 252.949 287.437 261.353 290.942 264.742" stroke="#CB5D66" stroke-width="2" stroke-linecap="round" stroke-linejoin="round"/>
<path d="M147.56 57.9075C146.995 58.1578 146.383 58.2861 145.765 58.2842C145.076 58.2852 144.396 58.1269 143.779 57.8216C143.161 57.5163 142.623 57.0723 142.205 56.5242C141.787 55.9761 141.502 55.3388 141.371 54.662C141.24 53.9853 141.267 53.2873 141.45 52.6228C141.633 51.9582 141.967 51.345 142.426 50.8311C142.885 50.3171 143.457 49.9163 144.096 49.6599C144.735 49.4035 145.425 49.2986 146.112 49.3532C146.799 49.4078 147.463 49.6205 148.054 49.9747" stroke="#CB5D66" stroke-width="2" stroke-linecap="round" stroke-linejoin="round"/>
<path d="M178.803 1.89888C173.959 0.643843 168.902 0.451839 163.977 1.33603C159.051 2.22023 154.376 4.15971 150.269 7.02155C146.163 9.8834 142.724 13.5999 140.187 17.9164C137.651 22.2329 136.076 27.0473 135.573 32.0296" stroke="#FF3274" stroke-width="2" stroke-linecap="round" stroke-linejoin="round"/>
<path d="M204.692 38.2755C206.701 40.9446 208.164 43.9844 208.996 47.2205C209.553 49.3548 209.067 50.8535 205.421 53.9136C204.7 63.6669 197.683 77.8613 180.089 79.5875" stroke="#C9C9C9" stroke-width="2" stroke-linecap="round" stroke-linejoin="round"/>
<path fill-rule="evenodd" clip-rule="evenodd" d="M73.3035 294.265C39.6112 299.877 44.8807 423.312 49.2745 431.456C50.2776 433.309 52.2024 435.194 54.5441 436.904L84.1062 431.54C86.8525 421.26 89.7493 400.817 90.9103 378.604L81.6141 375.452L91.3134 368.186C91.674 356.797 91.3129 345.4 90.2322 334.06L81.5983 333.665L84.9638 326.249L79.5097 326.001L86.7203 314.737C83.8586 304.459 79.6163 296.808 73.3035 294.265Z" fill="#AADAF1"/>
<path d="M72.8634 294.344L66.8172 434.677" stroke="#72A5BD" stroke-width="2" stroke-linecap="round" stroke-linejoin="round"/>
<path fill-rule="evenodd" clip-rule="evenodd" d="M7.28752 275.751C-30.6409 298.417 22.021 427.842 32.7712 440.854L75.8304 433.042C75.8694 432.916 75.9428 432.81 75.9759 432.685C78.9841 422.005 65.7779 355.824 44.5836 312.882L33.9266 315.07L39.2835 303.023C29.7654 286.579 18.8954 275.327 7.28752 275.751Z" fill="#AADAF1"/>
<path d="M7.48792 275.715L56.9778 436.462" stroke="#72A5BD" stroke-width="2" stroke-linecap="round" stroke-linejoin="round"/>
</g>
<defs>
<clipPath id="clip0">
<rect width="460" height="533" fill="white"/>
</clipPath>
</defs>
</svg>
