<svg width="345" height="493" viewBox="0 0 345 493" fill="none" xmlns="http://www.w3.org/2000/svg">
<g clip-path="url(#clip0)">
<path fill-rule="evenodd" clip-rule="evenodd" d="M224.059 219.818C224.059 214.483 232.458 210.168 242.812 210.168C253.166 210.168 261.565 214.483 261.565 219.818C261.565 225.153 253.166 229.46 242.812 229.46C232.458 229.46 224.059 225.161 224.059 219.818Z" fill="#8DC5E0"/>
<path fill-rule="evenodd" clip-rule="evenodd" d="M194.757 444.045L200.448 462.356L224.059 456.966L221.744 433.682L194.757 444.045Z" fill="#FF3274"/>
<path fill-rule="evenodd" clip-rule="evenodd" d="M132.085 221.976H491.189C492.109 221.976 492.992 222.341 493.643 222.991C494.293 223.641 494.659 224.523 494.659 225.443V231.719C494.659 232.639 494.293 233.521 493.643 234.171C492.992 234.822 492.109 235.187 491.189 235.187H132.085C131.165 235.187 130.283 234.822 129.632 234.171C128.981 233.521 128.616 232.639 128.616 231.719V225.443C128.616 224.523 128.981 223.641 129.632 222.991C130.283 222.341 131.165 221.976 132.085 221.976Z" fill="#AADAF1"/>
<path d="M180.973 235.501L108.324 458.167" stroke="#AADAF1" stroke-width="2" stroke-linecap="round" stroke-linejoin="round"/>
<path d="M239.931 235.501L167.314 458.167" stroke="#AADAF1" stroke-width="2" stroke-linecap="round" stroke-linejoin="round"/>
<path d="M239.931 235.501L312.54 458.167" stroke="#AADAF1" stroke-width="2" stroke-linecap="round" stroke-linejoin="round"/>
<path d="M180.973 235.501L253.581 458.167" stroke="#AADAF1" stroke-width="2" stroke-linecap="round" stroke-linejoin="round"/>
<path fill-rule="evenodd" clip-rule="evenodd" d="M116.001 421.717L108.356 438.977L129.519 448.038L138.938 430.59L116.001 421.717Z" fill="#FF3274"/>
<path fill-rule="evenodd" clip-rule="evenodd" d="M107.869 437.384L130.241 447.066C130.241 447.066 158.122 473.175 170.988 479.537C170.949 485.335 170.203 488.026 165.744 489.681C163.751 490.419 127.713 475.999 127.713 475.999L121.669 469.519L98.3556 458.802L107.869 437.384Z" fill="#6A3416"/>
<path d="M121.378 432.834C121.378 432.271 121.546 431.72 121.859 431.252C122.172 430.784 122.617 430.419 123.137 430.203C123.658 429.988 124.231 429.931 124.784 430.041C125.336 430.151 125.844 430.422 126.243 430.82C126.641 431.219 126.913 431.726 127.023 432.279C127.132 432.831 127.076 433.404 126.86 433.924C126.645 434.444 126.279 434.889 125.811 435.202C125.342 435.515 124.791 435.682 124.228 435.682C123.853 435.683 123.482 435.61 123.136 435.467C122.79 435.325 122.475 435.115 122.211 434.85C121.946 434.586 121.736 434.271 121.593 433.925C121.45 433.579 121.377 433.209 121.378 432.834V432.834Z" stroke="white" stroke-width="2" stroke-linecap="round" stroke-linejoin="round"/>
<path d="M110.601 436.545C110.601 435.98 110.769 435.427 111.083 434.958C111.397 434.488 111.844 434.122 112.366 433.906C112.889 433.69 113.464 433.634 114.018 433.745C114.573 433.856 115.082 434.128 115.481 434.529C115.881 434.929 116.152 435.438 116.261 435.993C116.371 436.547 116.313 437.122 116.096 437.643C115.878 438.165 115.511 438.61 115.04 438.923C114.569 439.236 114.016 439.402 113.45 439.401C112.694 439.399 111.969 439.097 111.435 438.562C110.901 438.026 110.601 437.301 110.601 436.545V436.545Z" stroke="white" stroke-width="2" stroke-linecap="round" stroke-linejoin="round"/>
<path d="M125.374 441.558C125.374 440.995 125.541 440.444 125.854 439.976C126.167 439.508 126.612 439.143 127.133 438.927C127.654 438.712 128.227 438.655 128.779 438.765C129.332 438.875 129.84 439.146 130.238 439.544C130.637 439.943 130.908 440.45 131.018 441.003C131.128 441.555 131.072 442.128 130.856 442.648C130.64 443.168 130.275 443.613 129.806 443.926C129.338 444.239 128.787 444.406 128.223 444.406C127.468 444.406 126.743 444.106 126.209 443.572C125.674 443.038 125.374 442.314 125.374 441.558Z" stroke="white" stroke-width="2" stroke-linecap="round" stroke-linejoin="round"/>
<path fill-rule="evenodd" clip-rule="evenodd" d="M96.5972 454.683L119.416 464.827C120.009 465.086 120.476 465.569 120.714 466.17C120.952 466.771 120.943 467.442 120.688 468.036L118.694 472.516C118.56 472.807 118.371 473.068 118.136 473.286C117.901 473.503 117.625 473.672 117.325 473.783C117.024 473.894 116.705 473.944 116.385 473.931C116.065 473.919 115.75 473.843 115.46 473.708L92.6253 463.564C92.3312 463.438 92.065 463.255 91.8419 463.025C91.6187 462.796 91.4431 462.525 91.325 462.228C91.2068 461.93 91.1486 461.613 91.1535 461.293C91.1584 460.973 91.2264 460.657 91.3537 460.363L93.3396 455.884C93.474 455.591 93.6651 455.327 93.9018 455.108C94.1384 454.889 94.4161 454.719 94.7188 454.607C95.0215 454.495 95.3433 454.445 95.6656 454.458C95.988 454.471 96.3046 454.548 96.5972 454.683Z" fill="#3C1B09"/>
<path fill-rule="evenodd" clip-rule="evenodd" d="M58.0007 256.542C109.973 241.911 184.528 250.015 200.612 272.335C206.358 280.306 204.412 292.78 202.967 297.479C201.523 302.178 140.704 432.591 140.704 432.591L113.435 422.227L140.233 316.316C140.233 316.316 51.5405 258.346 58.0007 256.542Z" fill="#C4C4C4"/>
<path d="M123.09 425.891L154.48 324.796" stroke="#8D8D8D" stroke-width="2" stroke-linecap="round" stroke-linejoin="round"/>
<path d="M116.174 411.354L145.438 422.337" stroke="#8D8D8D" stroke-width="2" stroke-linecap="round" stroke-linejoin="round"/>
<path fill-rule="evenodd" clip-rule="evenodd" d="M199.977 460.669L223.415 453.985C223.415 453.985 261.541 456.519 275.529 453.287C279.179 457.798 280.333 460.348 277.884 464.459C276.808 466.287 239.79 477.968 239.79 477.968L231.006 476.784L206.209 483.272L199.977 460.669Z" fill="#6A3416"/>
<path fill-rule="evenodd" clip-rule="evenodd" d="M202.229 481.201L226.312 474.587C226.619 474.498 226.941 474.471 227.259 474.506C227.576 474.542 227.884 474.64 228.164 474.794C228.444 474.949 228.691 475.157 228.89 475.407C229.09 475.657 229.238 475.943 229.326 476.25L230.629 480.957C230.711 481.267 230.73 481.59 230.687 481.907C230.643 482.224 230.538 482.53 230.376 482.806C230.214 483.082 229.999 483.324 229.743 483.517C229.488 483.71 229.197 483.85 228.887 483.931L204.804 490.544C204.497 490.633 204.175 490.661 203.857 490.625C203.54 490.589 203.232 490.492 202.952 490.337C202.672 490.183 202.425 489.975 202.226 489.725C202.027 489.475 201.878 489.188 201.79 488.881L200.487 484.174C200.405 483.864 200.386 483.542 200.429 483.225C200.473 482.907 200.578 482.602 200.74 482.326C200.902 482.049 201.117 481.808 201.373 481.615C201.628 481.422 201.919 481.281 202.229 481.201Z" fill="#3C1B09"/>
<path d="M210.448 452.471C210.446 451.906 210.613 451.352 210.926 450.882C211.24 450.411 211.686 450.044 212.208 449.826C212.73 449.609 213.306 449.552 213.861 449.662C214.416 449.772 214.925 450.044 215.325 450.444C215.726 450.844 215.998 451.353 216.108 451.908C216.218 452.463 216.161 453.038 215.943 453.56C215.726 454.082 215.359 454.528 214.888 454.841C214.417 455.154 213.863 455.32 213.297 455.319C212.542 455.319 211.817 455.019 211.282 454.485C210.748 453.951 210.448 453.226 210.448 452.471Z" stroke="white" stroke-width="2" stroke-linecap="round" stroke-linejoin="round"/>
<path d="M215.558 443.261C215.556 442.695 215.723 442.142 216.036 441.671C216.35 441.2 216.796 440.833 217.318 440.616C217.841 440.399 218.416 440.342 218.971 440.452C219.526 440.562 220.036 440.834 220.436 441.233C220.836 441.633 221.108 442.143 221.218 442.698C221.328 443.252 221.271 443.827 221.053 444.349C220.836 444.871 220.469 445.317 219.998 445.63C219.527 445.944 218.973 446.11 218.407 446.109C217.652 446.106 216.929 445.806 216.395 445.272C215.861 444.738 215.56 444.015 215.558 443.261V443.261Z" stroke="white" stroke-width="2" stroke-linecap="round" stroke-linejoin="round"/>
<path d="M199.977 450.439C199.977 449.876 200.144 449.325 200.457 448.857C200.77 448.389 201.215 448.024 201.736 447.808C202.256 447.593 202.829 447.536 203.382 447.646C203.935 447.756 204.442 448.027 204.841 448.425C205.239 448.824 205.511 449.331 205.621 449.884C205.731 450.436 205.674 451.009 205.458 451.529C205.243 452.049 204.878 452.494 204.409 452.807C203.94 453.12 203.39 453.287 202.826 453.287C202.07 453.287 201.345 452.987 200.811 452.453C200.277 451.919 199.977 451.194 199.977 450.439Z" stroke="white" stroke-width="2" stroke-linecap="round" stroke-linejoin="round"/>
<path fill-rule="evenodd" clip-rule="evenodd" d="M15.4088 320.583H134.566C138.652 320.583 142.572 322.206 145.461 325.094C148.351 327.982 149.975 331.899 149.975 335.984C149.975 340.068 148.351 343.985 145.461 346.873C142.572 349.761 138.652 351.384 134.566 351.384H15.4088C11.3221 351.384 7.40283 349.761 4.51313 346.873C1.62342 343.985 0 340.068 0 335.984H0C0 331.899 1.62342 327.982 4.51313 325.094C7.40283 322.206 11.3221 320.583 15.4088 320.583Z" fill="#AADAF1"/>
<path fill-rule="evenodd" clip-rule="evenodd" d="M69.9949 340.864H79.9796C80.7707 340.864 81.5294 341.178 82.0888 341.737C82.6482 342.296 82.9625 343.054 82.9625 343.845V454.15C82.9625 454.941 82.6482 455.699 82.0888 456.258C81.5294 456.817 80.7707 457.131 79.9796 457.131H69.9949C69.2038 457.131 68.4451 456.817 67.8857 456.258C67.3263 455.699 67.0121 454.941 67.0121 454.15V343.845C67.0121 343.054 67.3263 342.296 67.8857 341.737C68.4451 341.178 69.2038 340.864 69.9949 340.864Z" fill="#AADAF1"/>
<path fill-rule="evenodd" clip-rule="evenodd" d="M65.9759 421.717H84.03C85.3333 421.717 86.5831 422.235 87.5046 423.156C88.4262 424.077 88.9439 425.326 88.9439 426.629V453.256C88.9439 453.904 88.8155 454.546 88.5661 455.144C88.3167 455.743 87.9513 456.286 87.4908 456.742C87.0303 457.199 86.484 457.56 85.8833 457.804C85.2826 458.049 84.6394 458.172 83.9908 458.167H65.9367C64.6334 458.167 63.3836 457.649 62.4621 456.728C61.5405 455.807 61.0228 454.558 61.0228 453.256V426.629C61.0228 425.98 61.1512 425.338 61.4006 424.74C61.65 424.142 62.0155 423.598 62.4759 423.142C62.9364 422.685 63.4827 422.324 64.0834 422.08C64.6841 421.835 65.3273 421.712 65.9759 421.717Z" fill="#AADAF1"/>
<path d="M15.1655 477.129V471.927C15.1655 468.278 16.6161 464.778 19.1981 462.197C21.7802 459.617 25.2822 458.167 28.9337 458.167H74.9874" stroke="#AADAF1" stroke-width="2" stroke-linecap="round" stroke-linejoin="round"/>
<path d="M134.676 477.129V471.927C134.675 470.119 134.317 468.328 133.623 466.657C132.93 464.987 131.913 463.469 130.632 462.191C129.352 460.913 127.831 459.9 126.159 459.21C124.486 458.519 122.694 458.165 120.884 458.167H74.8459" stroke="#AADAF1" stroke-width="2" stroke-linecap="round" stroke-linejoin="round"/>
<path d="M52.4197 477.129V470.853C52.4197 463.847 56.0697 458.167 60.5676 458.167H89.407C93.9048 458.167 97.5549 463.847 97.5549 470.853V477.129" stroke="#AADAF1" stroke-width="2" stroke-linecap="round" stroke-linejoin="round"/>
<path d="M7.62195 484.676C7.62195 483.185 8.06437 481.727 8.89325 480.488C9.72214 479.248 10.9003 478.281 12.2787 477.711C13.657 477.14 15.1738 476.991 16.6371 477.282C18.1004 477.573 19.4445 478.291 20.4995 479.345C21.5544 480.399 22.2729 481.743 22.5639 483.205C22.855 484.668 22.7056 486.184 22.1347 487.561C21.5637 488.939 20.5969 490.116 19.3563 490.945C18.1158 491.773 16.6574 492.216 15.1654 492.216C13.1654 492.213 11.2479 491.418 9.83368 490.005C8.41945 488.592 7.62403 486.675 7.62195 484.676V484.676Z" stroke="#AADAF1" stroke-width="2" stroke-linecap="round" stroke-linejoin="round"/>
<path d="M44.8761 484.676C44.8761 483.185 45.3185 481.727 46.1474 480.488C46.9763 479.248 48.1544 478.281 49.5328 477.711C50.9112 477.14 52.4279 476.991 53.8912 477.282C55.3545 477.573 56.6986 478.291 57.7536 479.345C58.8086 480.399 59.527 481.743 59.8181 483.205C60.1091 484.668 59.9598 486.184 59.3888 487.561C58.8179 488.939 57.851 490.116 56.6105 490.945C55.37 491.773 53.9115 492.216 52.4196 492.216C50.4196 492.213 48.502 491.418 47.0878 490.005C45.6736 488.592 44.8782 486.675 44.8761 484.676V484.676Z" stroke="#AADAF1" stroke-width="2" stroke-linecap="round" stroke-linejoin="round"/>
<path d="M97.5548 477.129C99.0487 477.127 100.509 477.569 101.752 478.397C102.995 479.225 103.964 480.404 104.537 481.782C105.11 483.161 105.26 484.679 104.97 486.144C104.679 487.608 103.961 488.954 102.905 490.01C101.849 491.066 100.504 491.786 99.0388 492.078C97.5737 492.37 96.055 492.221 94.6747 491.65C93.2945 491.079 92.1146 490.111 91.2845 488.87C90.4544 487.629 90.0114 486.169 90.0114 484.676C90.0114 482.676 90.8059 480.757 92.2203 479.342C93.6348 477.927 95.5535 477.131 97.5548 477.129" stroke="#AADAF1" stroke-width="2" stroke-linecap="round" stroke-linejoin="round"/>
<path d="M127.164 484.676C127.164 483.185 127.606 481.727 128.435 480.488C129.264 479.248 130.442 478.281 131.82 477.711C133.199 477.14 134.715 476.991 136.179 477.282C137.642 477.573 138.986 478.291 140.041 479.345C141.096 480.399 141.815 481.743 142.106 483.205C142.397 484.668 142.247 486.184 141.676 487.561C141.105 488.939 140.139 490.116 138.898 490.945C137.657 491.773 136.199 492.216 134.707 492.216C132.707 492.213 130.79 491.418 129.375 490.005C127.961 488.592 127.166 486.675 127.164 484.676V484.676Z" stroke="#AADAF1" stroke-width="2" stroke-linecap="round" stroke-linejoin="round"/>
<path fill-rule="evenodd" clip-rule="evenodd" d="M19.8753 225.843C-27.6698 325.102 68.2917 327.778 101.966 327.283C135.641 326.789 144.504 324.255 153.617 322.05C156.529 330.869 191.436 445.065 191.436 445.065L222.089 435.808C222.089 435.808 198.658 290.732 193.367 280.933C178.838 253.992 92.8923 252.533 82.0206 253.184C71.1489 253.835 25.9038 213.259 19.8753 225.843Z" fill="#C4C4C4"/>
<path d="M22.8424 239.408C-9.72565 320.646 129.95 315.751 160.501 306.446C165.069 319.509 202.889 440.923 202.889 440.923" stroke="#8D8D8D" stroke-width="2" stroke-linecap="round" stroke-linejoin="round"/>
<path d="M199.466 306.595C189.639 304.574 180.784 299.294 174.336 291.611C167.889 283.928 164.228 274.293 163.947 264.27" stroke="#8D8D8D" stroke-width="2" stroke-linecap="round" stroke-linejoin="round"/>
<path d="M138.993 325.032C143.919 324.307 148.801 323.312 153.617 322.05C154.826 325.706 161.537 347.493 168.971 371.735" stroke="#8D8D8D" stroke-width="2" stroke-linecap="round" stroke-linejoin="round"/>
<path d="M199.239 305.01C196.68 292.246 194.529 283.146 193.367 280.933C179.709 255.624 102.971 252.8 84.7678 253.098" stroke="#8D8D8D" stroke-width="2" stroke-linecap="round" stroke-linejoin="round"/>
<path d="M220.621 426.833L188.799 436.443" stroke="#8D8D8D" stroke-width="2" stroke-linecap="round" stroke-linejoin="round"/>
<path fill-rule="evenodd" clip-rule="evenodd" d="M77.452 71.926C77.452 68.7106 78.4061 65.5675 80.1936 62.8941C81.9811 60.2207 84.5217 58.1372 87.4941 56.9071C90.4665 55.677 93.7371 55.3555 96.8923 55.9834C100.048 56.6113 102.946 58.1602 105.22 60.4344C107.494 62.7085 109.043 65.6057 109.669 68.7595C110.296 71.9133 109.973 75.182 108.741 78.1521C107.508 81.1223 105.422 83.6605 102.747 85.4458C100.071 87.231 96.9257 88.183 93.7086 88.1815C91.5731 88.1815 89.4585 87.761 87.4857 86.944C85.5128 86.1269 83.7203 84.9294 82.2107 83.4199C80.701 81.9103 79.5037 80.1183 78.6872 78.1461C77.8707 76.1739 77.451 74.0603 77.452 71.926Z" fill="#6A3416"/>
<path fill-rule="evenodd" clip-rule="evenodd" d="M231.155 205.744C233.832 203.547 241.085 198.189 243.408 198.22C245.732 198.251 252.765 204.857 252.922 206.591C253.079 208.325 250.842 211.063 249.508 211.259C248.173 211.455 243.879 207.336 242.937 207.705C241.995 208.074 239.923 210.27 239.319 211.243C238.714 212.216 228.486 207.901 231.155 205.744Z" fill="#F77F89"/>
<path fill-rule="evenodd" clip-rule="evenodd" d="M135.233 162.673L151.293 179.054C151.293 179.054 163.445 152.984 171.906 139.192C170.195 136.728 167.197 126.914 167.581 125.07C167.966 123.226 176.805 105.826 178.94 106.838C181.075 107.85 183.069 111.247 181.977 114.683C183.241 110.156 185.376 103.896 187.26 103.276C189.144 102.656 193.108 103.472 192.935 106.649C193.838 104.57 195.432 103.111 197.253 103.033C198.823 102.962 202.025 104.304 202.245 106.281C202.512 108.752 198.98 114.652 198.548 115.491C200.196 113.247 200.181 113.137 201.17 113.137C203.156 113.208 206.515 116.158 204.875 120.418C203.234 124.678 195.126 144.558 188.846 145.405C189.136 149.265 170.423 203.123 170.423 203.123L142.07 201.994L121.418 174.692L135.233 162.673Z" fill="#F77F89"/>
<path fill-rule="evenodd" clip-rule="evenodd" d="M79.3752 103.495C27.2303 103.558 9.80415 225.883 15.2518 234.269C19.2472 240.42 66.549 258.503 82.7584 252.949C88.4807 250.988 103.371 220.43 111.802 189.598C120.79 182.223 137.8 168.259 140.571 165.568C139.786 159.66 126.12 135.857 111.967 125.313C107.076 114.149 98.0023 103.495 79.3752 103.495Z" fill="#3B4161"/>
<path fill-rule="evenodd" clip-rule="evenodd" d="M92.8608 186.609C92.8608 186.609 117.752 217.99 124.299 220.54C130.845 223.09 201.554 222.274 206.719 221.67C211.884 221.066 210.942 225.004 215.613 225.255C220.448 225.522 223.235 221.246 223.894 219.089C226.846 222.368 232.05 227.412 235.465 225.655C237.882 224.4 237.914 223.301 236.25 221.568C238.604 222.925 242.859 224.918 244.578 223.576C247.341 221.426 247.6 219.418 246.666 217.747C243.785 212.577 234.507 205.257 232.301 204.41C229.758 203.406 222.01 206.167 218.282 206.395C201.382 207.438 158.766 196.933 144.786 196.298C142.729 192.375 121.418 166.619 119.769 164.046C113.921 169.043 92.8608 186.609 92.8608 186.609Z" fill="#F77F89"/>
<path fill-rule="evenodd" clip-rule="evenodd" d="M85.9139 78.3355C85.9124 73.4533 87.3596 68.6804 90.0725 64.6203C92.7854 60.5603 96.6422 57.3956 101.155 55.5266C105.668 53.6575 110.634 53.1681 115.425 54.1202C120.216 55.0723 124.617 57.4231 128.071 60.8753C131.525 64.3275 133.877 68.7261 134.83 73.5145C135.782 78.303 135.292 83.2662 133.422 87.7765C131.552 92.2867 128.386 96.1413 124.324 98.8528C120.261 101.564 115.486 103.011 110.601 103.009C104.054 103.007 97.7762 100.407 93.1469 95.78C88.5176 91.1533 85.916 84.8787 85.9139 78.3355Z" fill="#F77F89"/>
<path fill-rule="evenodd" clip-rule="evenodd" d="M89.2265 72.9615C89.3285 76.7979 81.2905 101.056 78.1193 105.7C79.6892 109.411 95.0509 118.715 102.108 116.731C102.893 112.023 105.522 102.562 107.147 100.459C108.772 98.3568 89.1244 69.0938 89.2265 72.9615Z" fill="#F77F89"/>
<path fill-rule="evenodd" clip-rule="evenodd" d="M117.446 26.3132C115.099 26.3203 112.782 26.8377 110.655 27.8293C108.528 28.821 106.643 30.2632 105.13 32.056C103.099 31.2908 100.949 30.8923 98.7794 30.8792C95.871 30.8378 92.9943 31.4859 90.385 32.7702C87.7756 34.0546 85.5079 35.9386 83.7678 38.268C82.0277 40.5974 80.8646 43.3058 80.3739 46.1711C79.8833 49.0365 80.079 51.9773 80.9451 54.7525C79.8482 55.7611 78.9722 56.9859 78.3724 58.3497C77.7726 59.7134 77.4619 61.1866 77.4598 62.6763C77.4775 65.2396 78.3885 67.7166 80.036 69.6811C81.6836 71.6456 83.9647 72.9749 86.4869 73.44C86.6125 72.8359 86.6125 72.4123 86.8087 71.7219C87.3425 69.8861 95.3334 66.5283 96.2282 67.1324C96.9326 67.6375 97.7346 67.9902 98.5831 68.168C98.6563 68.1722 98.7297 68.1722 98.8029 68.168C102.122 68.1595 105.378 67.2639 108.233 65.574C111.089 63.8842 113.44 61.4616 115.044 58.5575C115.845 58.6982 116.656 58.7795 117.469 58.8007C117.469 62.0157 118.423 65.1585 120.21 67.8317C121.997 70.5049 124.538 72.5884 127.51 73.8188C130.481 75.0491 133.752 75.371 136.907 74.7438C140.062 74.1166 142.96 72.5684 145.234 70.295C147.509 68.0217 149.058 65.1252 149.686 61.972C150.313 58.8187 149.991 55.5503 148.76 52.5799C147.529 49.6096 145.444 47.0709 142.77 45.2847C140.095 43.4985 136.95 42.5452 133.734 42.5452C133.731 40.4105 133.307 38.2973 132.487 36.3262C131.666 34.3552 130.466 32.5649 128.953 31.0577C127.441 29.5504 125.646 28.3556 123.672 27.5416C121.697 26.7275 119.582 26.3101 117.446 26.3132Z" fill="#6A3416"/>
<path fill-rule="evenodd" clip-rule="evenodd" d="M79.3673 63.3823C79.372 61.4934 79.9367 59.6483 80.9901 58.08C82.0434 56.5117 83.5383 55.2906 85.2857 54.5709C87.0331 53.8513 88.9547 53.6654 90.8078 54.0368C92.6608 54.4081 94.3622 55.3201 95.697 56.6574C97.0317 57.9947 97.9399 59.6974 98.3069 61.5503C98.6739 63.4033 98.4832 65.3234 97.7589 67.0681C97.0346 68.8127 95.8092 70.3037 94.2374 71.3527C92.6656 72.4016 90.8181 72.9615 88.9282 72.9615C87.6706 72.9615 86.4255 72.7135 85.2639 72.2318C84.1024 71.7502 83.0474 71.0442 82.1593 70.1544C81.2712 69.2646 80.5674 68.2084 80.0883 67.0463C79.6093 65.8843 79.3642 64.6392 79.3673 63.3823Z" fill="#F77F89"/>
<path d="M30.2838 229.46C29.2555 214.287 43.7616 157.918 54.6176 141.145" stroke="#737999" stroke-width="2" stroke-linecap="round" stroke-linejoin="round"/>
<path d="M62.4279 154.49C64.9554 159.707 77.4598 182.812 88.0568 190.963C92.0994 187.134 121.237 162.32 121.237 162.32C117.516 155.408 99.6271 133.739 93.8263 128.428" stroke="#737999" stroke-width="2" stroke-linecap="round" stroke-linejoin="round"/>
<path d="M82.5701 185.691L117.595 156.765" stroke="#737999" stroke-width="2" stroke-linecap="round" stroke-linejoin="round"/>
<path d="M107.971 118.127C107.729 118.902 107.363 119.633 106.888 120.292C102.728 126.098 91.0005 125.462 80.694 118.88" stroke="#737999" stroke-width="2" stroke-linecap="round" stroke-linejoin="round"/>
<path d="M112.069 125.368C114.055 130.531 116.779 142.573 115.625 154.098" stroke="#737999" stroke-width="2" stroke-linecap="round" stroke-linejoin="round"/>
<path d="M124.966 170.738L138.153 159.04" stroke="#737999" stroke-width="2" stroke-linecap="round" stroke-linejoin="round"/>
<path d="M67.5066 218.884C71.8631 218.202 95.6474 218.688 91.2516 220.179C86.8559 221.67 78.6295 222.729 82.2952 223.592C85.8165 224.416 89.384 225.029 92.9786 225.427" stroke="#737999" stroke-width="2" stroke-linecap="round" stroke-linejoin="round"/>
<path d="M123.694 78.9867C123.451 81.1598 123.93 86.0475 125.57 88.1814" stroke="#B5545C" stroke-width="2" stroke-linecap="round" stroke-linejoin="round"/>
<path fill-rule="evenodd" clip-rule="evenodd" d="M110.46 76.0996C111.245 74.2403 112.815 73.1184 113.906 73.597C114.997 74.0755 115.216 75.9506 114.408 77.8256C113.599 79.7006 112.053 80.8068 110.962 80.3283C109.871 79.8497 109.643 77.9668 110.46 76.0996Z" fill="#B5545C"/>
<path fill-rule="evenodd" clip-rule="evenodd" d="M129.102 80.344C129.887 78.4846 131.457 77.3628 132.548 77.8335C133.64 78.3042 133.859 80.1871 133.051 82.0621C132.242 83.9371 130.696 85.0433 129.605 84.5648C128.514 84.0862 128.286 82.1955 129.102 80.344Z" fill="#B5545C"/>
<path d="M110.365 93.9948C108.859 93.517 107.526 92.6057 106.535 91.375C105.544 90.1442 104.937 88.6486 104.792 87.0753" stroke="#B5545C" stroke-width="2" stroke-linecap="round" stroke-linejoin="round"/>
<path d="M106.056 102.593C102.78 101.979 99.6618 100.709 96.8896 98.8593C94.1174 97.0095 91.7483 94.6183 89.9249 91.8295" stroke="#B5545C" stroke-width="2" stroke-linecap="round" stroke-linejoin="round"/>
<path d="M92.2643 72.3339C91.1979 72.7352 90.0676 72.9399 88.9282 72.9379C88.0579 72.9377 87.1917 72.8189 86.3535 72.5849" stroke="#B5545C" stroke-width="2" stroke-linecap="round" stroke-linejoin="round"/>
<path d="M87.0835 69.1408C86.0762 68.8672 85.1656 68.3176 84.4545 67.5539C83.7434 66.7903 83.2601 65.8431 83.0592 64.8194C82.8583 63.7957 82.9479 62.7363 83.3178 61.7608C83.6876 60.7852 84.3231 59.9325 85.1523 59.299C85.9816 58.6654 86.9716 58.2762 88.0104 58.1754C89.0493 58.0746 90.0957 58.2661 91.0314 58.7284C91.9671 59.1907 92.7549 59.9053 93.3056 60.7915C93.8564 61.6776 94.1482 62.7001 94.1481 63.7433" stroke="#B5545C" stroke-width="2" stroke-linecap="round" stroke-linejoin="round"/>
<path d="M171.121 200.283L145.006 196.298L128.796 175.492" stroke="#B5545C" stroke-width="2" stroke-linecap="round" stroke-linejoin="round"/>
<path d="M181.53 136.94C182.503 134.822 185.204 130.177 184.27 128.153C183.335 126.129 176.867 123.391 177.66 121.453C178.453 119.516 182.048 114.275 182.048 114.275" stroke="#B5545C" stroke-width="2" stroke-linecap="round" stroke-linejoin="round"/>
<path d="M192.896 106.634L187.943 116.754" stroke="#B5545C" stroke-width="2" stroke-linecap="round" stroke-linejoin="round"/>
<path d="M198.783 115.483L194.757 121.195" stroke="#B5545C" stroke-width="2" stroke-linecap="round" stroke-linejoin="round"/>
<path d="M232.812 204.653L240.002 210.145" stroke="#B5545C" stroke-width="2" stroke-linecap="round" stroke-linejoin="round"/>
<path d="M236.147 221.238L230.778 216.28" stroke="#B5545C" stroke-width="2" stroke-linecap="round" stroke-linejoin="round"/>
<path fill-rule="evenodd" clip-rule="evenodd" d="M203.894 29.1611H212.944C213.368 29.1611 213.729 29.6632 213.729 30.283V35.9237C213.729 36.5435 213.376 37.0378 212.944 37.0378H203.894C203.462 37.0378 203.109 36.5435 203.109 35.9237V30.283C203.116 29.6632 203.462 29.1611 203.894 29.1611Z" fill="#FF3274"/>
<path fill-rule="evenodd" clip-rule="evenodd" d="M217.638 33.4603V36.9279C217.638 37.0299 217.567 37.0691 217.489 37.0221L214.475 35.304L211.468 33.5701C211.382 33.5231 211.382 33.4446 211.468 33.3975L214.475 31.6559L217.489 29.9221C217.504 29.9113 217.521 29.9051 217.54 29.9041C217.558 29.9032 217.576 29.9075 217.592 29.9167C217.607 29.9258 217.62 29.9393 217.629 29.9556C217.637 29.9719 217.64 29.9902 217.638 30.0084V33.4603Z" fill="#FF3274"/>
<path d="M197.025 33.0994C197.025 30.4616 197.808 27.883 199.274 25.6897C200.74 23.4965 202.824 21.787 205.263 20.7776C207.701 19.7681 210.384 19.504 212.973 20.0186C215.561 20.5332 217.939 21.8034 219.805 23.6687C221.672 25.5339 222.942 27.9103 223.457 30.4975C223.972 33.0846 223.708 35.7662 222.698 38.2032C221.688 40.6403 219.978 42.7232 217.783 44.1887C215.589 45.6542 213.009 46.4364 210.369 46.4364C206.83 46.4364 203.436 45.0313 200.934 42.5301C198.431 40.0289 197.025 36.6366 197.025 33.0994Z" stroke="#FF3274" stroke-width="2" stroke-linecap="round" stroke-linejoin="round"/>
<path d="M22.8346 0.784547H214.043C216.594 0.783516 219.119 1.28485 221.476 2.25989C223.833 3.23494 225.974 4.66458 227.777 6.46711C229.581 8.26964 231.011 10.4097 231.987 12.765C232.962 15.1203 233.464 17.6447 233.463 20.1939V117.531C233.463 122.678 231.417 127.615 227.775 131.255C224.133 134.895 219.194 136.94 214.043 136.94H22.8346C17.6854 136.938 12.7479 134.892 9.10768 131.252C5.46743 127.613 3.42249 122.677 3.42249 117.531V20.1939C3.42146 17.6454 3.9228 15.1216 4.89789 12.7668C5.87298 10.412 7.3027 8.27231 9.10538 6.46988C10.9081 4.66746 13.0484 3.23765 15.4041 2.26215C17.7598 1.28664 20.2847 0.784547 22.8346 0.784547V0.784547Z" stroke="#9B9B9B" stroke-width="2" stroke-linecap="round" stroke-linejoin="round"/>
<path d="M232.215 13.2351H4.86682" stroke="#9B9B9B" stroke-width="2" stroke-linecap="round" stroke-linejoin="round"/>
<path d="M17.379 7.24126C17.3775 6.69475 17.5382 6.16006 17.8409 5.70489C18.1435 5.24973 18.5745 4.89455 19.0793 4.68433C19.584 4.47411 20.1398 4.41831 20.6763 4.52397C21.2128 4.62964 21.7059 4.89203 22.0931 5.27793C22.4803 5.66382 22.7442 6.15587 22.8515 6.69177C22.9587 7.22767 22.9045 7.78333 22.6956 8.2884C22.4867 8.79346 22.1325 9.22522 21.678 9.52901C21.2234 9.8328 20.6889 9.99497 20.1421 9.99497C19.4106 9.99497 18.709 9.7051 18.1911 9.1889C17.6731 8.67271 17.3811 7.97231 17.379 7.24126V7.24126Z" stroke="#FF3274" stroke-width="2" stroke-linecap="round" stroke-linejoin="round"/>
<path d="M28.2586 7.24126C28.257 6.69475 28.4177 6.16006 28.7204 5.70489C29.0231 5.24973 29.454 4.89455 29.9588 4.68433C30.4635 4.47411 31.0193 4.41831 31.5558 4.52397C32.0923 4.62964 32.5854 4.89203 32.9726 5.27793C33.3598 5.66382 33.6238 6.15587 33.731 6.69177C33.8383 7.22768 33.784 7.78333 33.5751 8.2884C33.3662 8.79346 33.0121 9.22522 32.5575 9.52902C32.103 9.83281 31.5684 9.99497 31.0216 9.99497C30.6591 9.996 30.3 9.92554 29.9648 9.78761C29.6296 9.64969 29.325 9.44702 29.0683 9.19121C28.8116 8.9354 28.608 8.63148 28.469 8.29688C28.3301 7.96227 28.2586 7.60355 28.2586 7.24126V7.24126Z" stroke="#FF3274" stroke-width="2" stroke-linecap="round" stroke-linejoin="round"/>
<path d="M39.1616 7.24126C39.1601 6.69475 39.3208 6.16006 39.6235 5.70489C39.9261 5.24973 40.3571 4.89455 40.8619 4.68433C41.3666 4.47411 41.9224 4.41831 42.4589 4.52397C42.9954 4.62964 43.4885 4.89203 43.8757 5.27793C44.2629 5.66382 44.5268 6.15587 44.6341 6.69177C44.7413 7.22767 44.6871 7.78333 44.4782 8.2884C44.2693 8.79346 43.9151 9.22522 43.4606 9.52901C43.006 9.8328 42.4715 9.99497 41.9247 9.99497C41.1932 9.99497 40.4916 9.7051 39.9737 9.1889C39.4557 8.67271 39.1637 7.97231 39.1616 7.24126V7.24126Z" stroke="#FF3274" stroke-width="2" stroke-linecap="round" stroke-linejoin="round"/>
<path d="M381.648 235.501L309.031 458.167" stroke="#AADAF1" stroke-width="2" stroke-linecap="round" stroke-linejoin="round"/>
<path fill-rule="evenodd" clip-rule="evenodd" d="M255.897 90.535H368.453C370.782 90.535 373.016 91.4599 374.664 93.1063C376.311 94.7526 377.236 96.9856 377.236 99.3139V192.21C377.236 194.539 376.311 196.772 374.664 198.418C373.016 200.064 370.782 200.989 368.453 200.989H255.897C253.57 200.985 251.34 200.058 249.696 198.412C248.052 196.767 247.129 194.536 247.129 192.21V99.3139C247.129 96.9883 248.052 94.7577 249.696 93.1118C251.34 91.4659 253.57 90.5391 255.897 90.535Z" fill="#AADAF1"/>
<path fill-rule="evenodd" clip-rule="evenodd" d="M255.897 90.5272C254.744 90.5261 253.602 90.7522 252.536 91.1926C251.471 91.6329 250.502 92.2788 249.687 93.0934C248.871 93.9079 248.224 94.8752 247.782 95.9399C247.341 97.0045 247.113 98.1457 247.113 99.2982V192.21C247.124 194.532 248.054 196.755 249.7 198.393C251.346 200.031 253.574 200.95 255.897 200.95H261.541C261.494 200.417 261.368 199.899 261.368 199.381V90.5272H255.897Z" fill="#8DC5E0"/>
<path fill-rule="evenodd" clip-rule="evenodd" d="M296.574 173.601H334.574L355.854 221.976H316.512L296.574 173.601Z" fill="#8DC5E0"/>
<path opacity="0.25" fill-rule="evenodd" clip-rule="evenodd" d="M22.9366 0.784546H214.145C219.296 0.784546 224.235 2.82945 227.877 6.46941C231.519 10.1094 233.565 15.0462 233.565 20.1939V117.531C233.565 122.678 231.519 127.615 227.877 131.255C224.235 134.895 219.296 136.94 214.145 136.94H22.9366C17.7875 136.938 12.85 134.892 9.20973 131.252C5.56948 127.613 3.52454 122.677 3.52454 117.531V20.1939C3.52351 17.6454 4.02485 15.1216 4.99994 12.7668C5.97503 10.412 7.40475 8.27231 9.20743 6.46988C11.0101 4.66746 13.1504 3.23765 15.5061 2.26215C17.8618 1.28664 20.3867 0.784546 22.9366 0.784546Z" fill="white"/>
</g>
<defs>
<clipPath id="clip0">
<rect width="514" height="493" fill="white"/>
</clipPath>
</defs>
</svg>
