<svg width="273" height="550" viewBox="0 0 273 550" fill="none" xmlns="http://www.w3.org/2000/svg">
<path fill-rule="evenodd" clip-rule="evenodd" d="M-235.061 290.574H156.955C157.96 290.574 158.923 290.973 159.634 291.684C160.344 292.394 160.743 293.357 160.743 294.362V301.217C160.743 302.222 160.344 303.185 159.634 303.895C158.923 304.606 157.96 305.005 156.955 305.005H-235.061C-236.066 305.005 -237.029 304.606 -237.74 303.895C-238.45 303.185 -238.849 302.222 -238.849 301.217V294.362C-238.849 293.357 -238.45 292.394 -237.74 291.684C-237.029 290.973 -236.066 290.574 -235.061 290.574Z" fill="#AADAF1"/>
<path d="M37.3741 305.347L-41.8982 548.554" stroke="#AADAF1" stroke-width="2" stroke-linecap="round" stroke-linejoin="round"/>
<path d="M101.736 305.347L22.4641 548.554" stroke="#AADAF1" stroke-width="2" stroke-linecap="round" stroke-linejoin="round"/>
<path d="M101.736 305.347L181 548.554" stroke="#AADAF1" stroke-width="2" stroke-linecap="round" stroke-linejoin="round"/>
<path d="M37.374 305.347L116.638 548.554" stroke="#AADAF1" stroke-width="2" stroke-linecap="round" stroke-linejoin="round"/>
<path fill-rule="evenodd" clip-rule="evenodd" d="M-99.9018 147.009H22.9698C25.5129 147.009 27.9518 148.019 29.7501 149.817C31.5483 151.615 32.5585 154.054 32.5585 156.597V258.063C32.5585 260.607 31.5483 263.045 29.7501 264.844C27.9518 266.642 25.5129 267.652 22.9698 267.652H-99.9018C-102.442 267.648 -104.876 266.635 -106.671 264.838C-108.465 263.04 -109.473 260.604 -109.473 258.063V156.597C-109.473 154.057 -108.465 151.621 -106.671 149.823C-104.876 148.025 -102.442 147.013 -99.9018 147.009Z" fill="#AADAF1"/>
<path fill-rule="evenodd" clip-rule="evenodd" d="M-55.4971 237.738H-14.0143L9.21635 290.574H-33.7317L-55.4971 237.738Z" fill="#8DC5E0"/>
<path fill-rule="evenodd" clip-rule="evenodd" d="M83.0815 253.342H117.255V290.574H83.0815V253.342Z" fill="#8DC5E0"/>
<path d="M108.146 271.954C108.146 270.21 108.663 268.505 109.632 267.055C110.601 265.605 111.978 264.475 113.589 263.807C115.2 263.14 116.973 262.965 118.684 263.306C120.394 263.646 121.965 264.486 123.199 265.719C124.432 266.952 125.271 268.523 125.612 270.234C125.952 271.944 125.777 273.717 125.11 275.328C124.443 276.939 123.312 278.316 121.862 279.285C120.412 280.254 118.708 280.771 116.964 280.771C114.625 280.771 112.382 279.842 110.729 278.189C109.075 276.535 108.146 274.292 108.146 271.954V271.954Z" stroke="#8DC5E0" stroke-width="2" stroke-linecap="round" stroke-linejoin="round"/>
<path d="M83.0815 259.683H116.964" stroke="#AADAF1" stroke-width="2" stroke-linecap="round" stroke-linejoin="round"/>
<g clip-path="url(#clip0)">
<path fill-rule="evenodd" clip-rule="evenodd" d="M206.819 449.7L200.21 469.098L173.789 469.951L172.023 440.782L206.819 449.7Z" fill="#F77F89"/>
<path fill-rule="evenodd" clip-rule="evenodd" d="M172.63 466.595V492.082L244.071 493.524C244.071 493.524 242.039 475.309 205.508 475.012C205.645 467.007 205.66 466.595 205.66 466.595H172.63Z" fill="#6367FD"/>
<path fill-rule="evenodd" clip-rule="evenodd" d="M140.047 453.367L140.54 472.468L168.128 473.327L175.298 452.068L140.047 453.367Z" fill="#F77F89"/>
<path fill-rule="evenodd" clip-rule="evenodd" d="M181.77 0C211.791 0 218.006 25.4607 218.021 34.8114C218.021 43.7223 216.073 45.0823 216.142 54.115C216.187 60.9758 218.415 65.7797 218.211 69.6769C217.028 89.9752 186.287 95.8278 177.511 95.9428C168.734 96.0578 130.52 89.4542 130.52 73.6757C130.52 62.6673 138.365 45.062 138.152 32.8357C137.683 7.44267 161.466 0 181.77 0Z" fill="black"/>
<path fill-rule="evenodd" clip-rule="evenodd" d="M139.896 469.078L140.305 494.586L210.434 496C210.434 496 210.434 477.4 172.023 477.055V469.078H139.896Z" fill="#6367FD"/>
<path fill-rule="evenodd" clip-rule="evenodd" d="M133.014 277.747L133.196 456.188L183.309 455.214L184.067 446.953L216.384 450.843L236.893 264.776L225.82 217.13L152.629 215.344L133.014 277.747Z" fill="#3B4161"/>
<path fill-rule="evenodd" clip-rule="evenodd" d="M192.055 353.568L222.106 398.65L216.399 450.37L184.029 446.987L192.055 353.568Z" fill="#15192C"/>
<path fill-rule="evenodd" clip-rule="evenodd" d="M170.97 231.399H224.206L231.413 161.188L221.796 107.384L203.606 91.7478L185.37 84.4811L152.439 88.9737L170.97 231.399Z" fill="#F7D167"/>
<path d="M150.036 455.864L150.385 266.055" stroke="#737999" stroke-width="1.7" stroke-linecap="round" stroke-linejoin="round"/>
<path fill-rule="evenodd" clip-rule="evenodd" d="M161.822 83.615C149.377 83.9195 112.217 95.9631 106.79 108.183C102.667 117.452 99.8399 201.324 109.526 205.418C110.148 205.686 110.798 205.899 111.466 206.054C110.883 208.625 105.304 268.159 106.722 273.112C108.139 278.065 111.86 285.562 117.249 285.291C138.099 284.175 176.404 259.742 180.209 255.757C180.792 248.206 182.407 219.843 182.407 219.843L179.087 135.687L160.086 89.3121C160.086 89.3121 174.267 83.3106 161.822 83.615Z" fill="white"/>
<path fill-rule="evenodd" clip-rule="evenodd" d="M188.94 83.0873C210.336 85.4622 240.539 100.273 244.427 107.019C247.701 112.689 246.041 186.094 246.041 186.094C246.041 186.094 233.915 200.945 239.379 222.306C244.396 242.009 245.882 268.606 240.622 273.579C231.952 269.662 220.803 253.958 218.794 250.087C216.786 246.217 216.263 224.322 214.717 219.64C213.171 214.958 206.251 132.067 206.251 132.067C206.251 132.067 203.022 98.5816 188.94 83.0873Z" fill="white"/>
<path d="M135.075 90.1375C145.845 107.668 167.666 127.649 178.913 135.274" stroke="#C9C9C9" stroke-width="2" stroke-linecap="round" stroke-linejoin="round"/>
<path d="M199.771 85.0968C209.358 96.6397 211.829 116.255 204.318 136.174" stroke="#C9C9C9" stroke-width="2" stroke-linecap="round" stroke-linejoin="round"/>
<path d="M145.959 139.11C145.959 137.603 146.46 136.13 147.398 134.877C148.336 133.624 149.669 132.647 151.229 132.071C152.789 131.495 154.505 131.344 156.161 131.639C157.816 131.933 159.337 132.659 160.53 133.726C161.723 134.792 162.536 136.15 162.864 137.628C163.193 139.106 163.022 140.639 162.375 142.031C161.728 143.423 160.633 144.612 159.229 145.448C157.824 146.285 156.174 146.73 154.485 146.729C152.223 146.727 150.055 145.924 148.456 144.495C146.857 143.066 145.959 141.13 145.959 139.11V139.11Z" stroke="#353823" stroke-width="3.41" stroke-linecap="round" stroke-linejoin="round"/>
<path fill-rule="evenodd" clip-rule="evenodd" d="M150.112 139.11C150.112 138.341 150.368 137.589 150.847 136.949C151.326 136.309 152.006 135.81 152.803 135.516C153.599 135.222 154.475 135.144 155.32 135.295C156.166 135.445 156.942 135.815 157.552 136.359C158.161 136.903 158.576 137.597 158.745 138.351C158.913 139.106 158.826 139.888 158.497 140.599C158.167 141.31 157.608 141.918 156.891 142.345C156.175 142.773 155.332 143.001 154.47 143.001C153.314 143.001 152.206 142.591 151.389 141.861C150.571 141.132 150.112 140.142 150.112 139.11Z" fill="#353823"/>
<path d="M152.181 131.769C146.421 112.885 146.05 86.6056 160.92 81.8694" stroke="#353823" stroke-width="3.41" stroke-linecap="round" stroke-linejoin="round"/>
<path d="M186.886 78.6555C195.367 81.8626 203.446 96.6533 205.341 109.319" stroke="#353823" stroke-width="3.41" stroke-linecap="round" stroke-linejoin="round"/>
<path d="M196.186 133.109C193.472 121.403 197.565 110.781 205.326 109.319C213.087 107.858 221.583 116.207 224.274 127.912C226.964 139.618 222.894 150.24 215.133 151.695C207.372 153.15 198.899 144.794 196.186 133.109Z" stroke="#353823" stroke-width="3.41" stroke-linecap="round" stroke-linejoin="round"/>
<path d="M143.405 114.698L140.131 171.608" stroke="#C9C9C9" stroke-width="2" stroke-linecap="round" stroke-linejoin="round"/>
<path d="M134.189 116.376L142.7 126.972" stroke="#C9C9C9" stroke-width="2" stroke-linecap="round" stroke-linejoin="round"/>
<path fill-rule="evenodd" clip-rule="evenodd" d="M162.633 167.081L129.906 174.071L162.633 167.081Z" fill="#606060"/>
<path d="M162.633 167.081L129.906 174.071" stroke="#C9C9C9" stroke-width="2" stroke-linecap="round" stroke-linejoin="round"/>
<path d="M131.559 166.256L139.896 171.939" stroke="#C9C9C9" stroke-width="2" stroke-linecap="round" stroke-linejoin="round"/>
<path d="M163.876 200.039C150.112 204.985 117.416 210.898 111.239 206C102.978 199.443 100.628 131.776 104.774 113.826C107.192 103.379 119.402 96.6533 125.768 93.9468" stroke="#C9C9C9" stroke-width="2" stroke-linecap="round" stroke-linejoin="round"/>
<path d="M154.038 202.935C150.112 198.489 148.612 176.324 150.506 169.673" stroke="#C9C9C9" stroke-width="2" stroke-linecap="round" stroke-linejoin="round"/>
<path fill-rule="evenodd" clip-rule="evenodd" d="M154.47 174.003C154.469 173.649 154.585 173.303 154.804 173.009C155.023 172.714 155.335 172.484 155.7 172.348C156.066 172.212 156.468 172.175 156.857 172.243C157.245 172.312 157.603 172.481 157.883 172.731C158.164 172.98 158.355 173.298 158.433 173.645C158.511 173.992 158.472 174.351 158.32 174.678C158.169 175.005 157.913 175.284 157.584 175.481C157.254 175.677 156.867 175.782 156.471 175.782C156.209 175.783 155.949 175.738 155.706 175.649C155.463 175.56 155.243 175.429 155.057 175.264C154.871 175.098 154.723 174.902 154.623 174.685C154.522 174.469 154.47 174.237 154.47 174.003Z" fill="#C9C9C9"/>
<path d="M150.825 228.334C146.473 229.835 141.847 230.603 137.182 230.601C133.721 230.571 130.28 230.116 126.958 229.248C126.708 230.106 126.574 230.987 126.556 231.873V246.007C126.556 248.968 127.874 251.808 130.219 253.902C132.564 255.995 135.745 257.171 139.062 257.171C142.379 257.171 145.559 255.995 147.905 253.902C150.25 251.808 151.567 248.968 151.567 246.007V231.86C151.536 230.656 151.285 229.466 150.825 228.334Z" stroke="#C9C9C9" stroke-width="2" stroke-linecap="round" stroke-linejoin="round"/>
<path fill-rule="evenodd" clip-rule="evenodd" d="M199.331 128.907H264.686C268.65 128.907 271.014 131.674 269.991 135.085L244.76 217.942C244.145 219.684 242.94 221.213 241.311 222.319C239.683 223.426 237.71 224.054 235.665 224.119H170.349C166.392 224.119 164.02 221.352 165.043 217.942L190.266 135.085C190.879 133.346 192.079 131.819 193.702 130.713C195.325 129.607 197.291 128.977 199.331 128.907Z" fill="#6367FD"/>
<path fill-rule="evenodd" clip-rule="evenodd" d="M217.369 124.644H254.462C254.873 124.614 255.287 124.677 255.664 124.827C256.042 124.978 256.37 125.211 256.619 125.506C256.868 125.8 257.029 126.146 257.088 126.512C257.147 126.877 257.101 127.249 256.955 127.594L255.151 133.224C254.846 134.056 254.262 134.785 253.479 135.312C252.696 135.839 251.751 136.14 250.771 136.174H213.678C213.267 136.203 212.854 136.138 212.478 135.987C212.102 135.836 211.775 135.603 211.526 135.309C211.278 135.015 211.116 134.67 211.056 134.305C210.997 133.941 211.041 133.569 211.185 133.224L212.989 127.594C213.296 126.763 213.88 126.036 214.663 125.509C215.446 124.982 216.39 124.68 217.369 124.644Z" fill="#3B4161"/>
<path fill-rule="evenodd" clip-rule="evenodd" d="M162.443 171.141C165.333 169.649 168.402 168.453 171.591 167.575C176.192 164.192 179.572 150.829 180.792 149.983C182.013 149.138 186.098 149.686 186.219 150.951C186.75 155.586 186.469 160.999 181.869 165.836C195.253 158.238 196.269 154.869 199.953 157.413C203.636 159.957 204.962 172.366 201.802 177.494C193.101 191.649 170.212 193.564 163.209 193.658C161.466 186.926 161.466 178.787 162.443 171.141Z" fill="#F77F89"/>
<path d="M133.188 442.264L184.938 440.782" stroke="#737999" stroke-width="1.7" stroke-linecap="round" stroke-linejoin="round"/>
<path d="M199.9 261.61L184.089 446.96" stroke="#737999" stroke-width="1.7" stroke-linecap="round" stroke-linejoin="round"/>
<path d="M185.37 432.067L218.052 435.491" stroke="#737999" stroke-width="1.7" stroke-linecap="round" stroke-linejoin="round"/>
<path d="M226.745 356.856C224.745 357.035 222.725 356.816 220.831 356.214C218.937 355.612 217.216 354.643 215.793 353.375C214.37 352.108 213.279 350.575 212.599 348.886C211.92 347.197 211.668 345.395 211.863 343.609C212.058 341.822 212.694 340.097 213.726 338.557C214.758 337.017 216.16 335.7 217.831 334.702C219.502 333.704 221.4 333.05 223.388 332.786C225.376 332.521 227.405 332.654 229.329 333.175" stroke="#737999" stroke-width="1.7" stroke-linecap="round" stroke-linejoin="round"/>
<path d="M191.168 365.158C187.268 364.966 183.605 363.423 180.959 360.857C178.313 358.291 176.893 354.905 177.001 351.419C177.108 347.933 178.735 344.622 181.535 342.19C184.336 339.758 188.088 338.398 191.994 338.398C192.5 338.398 192.977 338.418 193.427 338.459" stroke="#737999" stroke-width="1.7" stroke-linecap="round" stroke-linejoin="round"/>
<path d="M202.31 161.093L190.6 169.463" stroke="#A7464F" stroke-width="3.41" stroke-linecap="round" stroke-linejoin="round"/>
<path d="M203.56 169.754L188.69 180.309" stroke="#A7464F" stroke-width="3.41" stroke-linecap="round" stroke-linejoin="round"/>
<path fill-rule="evenodd" clip-rule="evenodd" d="M268.862 169.355C268.68 166.567 269.62 160.376 272.394 154.469C273.409 152.331 273.47 148.813 269.9 148.813C265.838 148.813 260.404 156.093 263.079 164.76C265.754 173.428 269.127 173.292 268.862 169.355Z" fill="#F77F89"/>
<path fill-rule="evenodd" clip-rule="evenodd" d="M256.281 152.974C259.509 152.974 269.324 170.309 269.256 172.413C269.188 174.517 268.165 177.718 266.641 177.555C265.118 177.393 252.37 162.907 252.37 157.988C252.37 155.139 253.923 152.974 256.281 152.974Z" fill="#F77F89"/>
<path fill-rule="evenodd" clip-rule="evenodd" d="M252.067 162.934C256.091 162.934 266.702 176.75 266.778 178.333C266.853 179.916 264.708 181.371 262.935 181.439C261.161 181.507 248.482 172.223 248.482 167.907C248.459 165.268 249.793 162.934 252.067 162.934Z" fill="#F77F89"/>
<path fill-rule="evenodd" clip-rule="evenodd" d="M255.78 188.773C257.523 188.699 262.374 184.829 262.374 181.784C262.374 180.586 258.986 177.487 257.289 177.582C255.591 177.677 252.127 183.502 252.195 184.984C252.264 186.466 253.499 188.848 255.78 188.773Z" fill="#F77F89"/>
<path d="M262.374 159.381C265.853 164.551 269.294 171.168 269.256 172.413" stroke="#A7464F" stroke-width="3.41" stroke-linecap="round" stroke-linejoin="round"/>
<path d="M254.5 163.949C259.29 167.169 266.694 177.014 266.755 178.333" stroke="#A94B53" stroke-width="3.41" stroke-linecap="round" stroke-linejoin="round"/>
<path fill-rule="evenodd" clip-rule="evenodd" d="M149.794 39.5747C149.794 24.0872 163.671 11.5023 180.823 11.5023C197.974 11.5023 211.821 24.0601 211.821 39.5477C211.821 55.0352 197.914 67.6201 180.823 67.6201C163.732 67.6201 149.794 55.069 149.794 39.5747Z" fill="#F77F89"/>
<path fill-rule="evenodd" clip-rule="evenodd" d="M176.23 41.5978C176.563 39.8115 177.746 38.4922 178.928 38.6681C180.11 38.844 180.762 40.4273 180.444 42.2135C180.126 43.9997 178.928 45.3191 177.746 45.15C176.563 44.9808 175.904 43.3908 176.23 41.5978Z" fill="#B5545C"/>
<path fill-rule="evenodd" clip-rule="evenodd" d="M199.581 42.9374C199.892 41.2662 201.014 40.0348 202.097 40.1972C203.181 40.3596 203.81 41.8413 203.507 43.5126C203.204 45.1838 202.067 46.4084 200.983 46.219C199.899 46.0295 199.27 44.6087 199.581 42.9374Z" fill="#B5545C"/>
<path fill-rule="evenodd" clip-rule="evenodd" d="M154.531 51.9228C156.373 56.4966 161.003 80.2658 159.836 88.8993C164.687 95.4624 186.303 93.6356 192.745 88.0806C189.539 80.0899 189.418 74.3591 190.592 67.6201C191.706 61.3141 152.689 47.3625 154.531 51.9228Z" fill="#F77F89"/>
<path fill-rule="evenodd" clip-rule="evenodd" d="M193.094 10.8257C193.359 17.4903 186.545 23.8572 168.022 27.0169C170.053 31.6923 170.22 38.7222 160.102 39.9875C148.301 41.4489 147.338 27.9912 147.338 27.9912L165.013 9.35071C165.013 9.35071 192.836 4.14761 193.094 10.8257Z" fill="black"/>
<path fill-rule="evenodd" clip-rule="evenodd" d="M187.53 6.13682C186.772 12.0571 194.405 26.435 212.079 26.8275C224.645 26.8275 188.265 0.209749 187.53 6.13682Z" fill="black"/>
<path fill-rule="evenodd" clip-rule="evenodd" d="M167.029 66.6254C165.331 64.7107 167.787 55.9824 170.462 51.9837C173.691 50.2854 185.143 51.6995 191.047 47.1662C192.783 45.813 193.715 46.8144 195.064 48.2962C197.436 50.8943 204.568 52.2408 207.236 53.709C207.63 57.498 203.735 66.1721 202.052 68.114C199.414 71.1925 175.305 71.47 167.029 66.6254Z" fill="white"/>
<path d="M172.024 52.7753C170.462 50.4478 163.641 40.0348 161.466 37.3961" stroke="white" stroke-width="3.41" stroke-linecap="round" stroke-linejoin="round"/>
<path d="M168.37 66.0707C163.755 66.0707 152.78 53.1813 151.53 48.8578" stroke="white" stroke-width="3.41" stroke-linecap="round" stroke-linejoin="round"/>
<path fill-rule="evenodd" clip-rule="evenodd" d="M144.489 41.8752C144.489 40.0914 145.081 38.3476 146.191 36.8644C147.301 35.3812 148.879 34.2252 150.725 33.5426C152.571 32.8599 154.603 32.6813 156.562 33.0293C158.522 33.3773 160.322 34.2363 161.735 35.4977C163.148 36.759 164.11 38.3661 164.5 40.1156C164.89 41.8652 164.69 43.6786 163.925 45.3267C163.161 46.9747 161.866 48.3833 160.204 49.3743C158.543 50.3654 156.59 50.8944 154.591 50.8944C151.912 50.8944 149.342 49.9441 147.448 48.2527C145.553 46.5613 144.489 44.2672 144.489 41.8752Z" fill="#F77F89"/>
<path d="M208.327 489.971L140.222 489.552" stroke="#4C4FD9" stroke-width="1.7" stroke-linecap="round" stroke-linejoin="round"/>
<path d="M209.783 492.955C207.911 487.671 200.589 477.319 172.023 477.069V474.504" stroke="#4C4FD9" stroke-width="1.7" stroke-linecap="round" stroke-linejoin="round"/>
<path d="M140.222 482.542C141.914 482.542 143.589 482.84 145.152 483.418C146.715 483.996 148.136 484.843 149.332 485.911C150.529 486.979 151.478 488.247 152.125 489.643C152.773 491.038 153.106 492.534 153.106 494.045C153.106 494.349 153.106 494.647 153.106 494.945" stroke="#4C4FD9" stroke-width="1.7" stroke-linecap="round" stroke-linejoin="round"/>
<path d="M179.572 482.908L182.915 477.738" stroke="#4C4FD9" stroke-width="1.7" stroke-linecap="round" stroke-linejoin="round"/>
<path d="M187.439 484.126L190.289 479.051" stroke="#4C4FD9" stroke-width="1.7" stroke-linecap="round" stroke-linejoin="round"/>
<path d="M194.882 485.458L197.36 481.351" stroke="#4C4FD9" stroke-width="1.7" stroke-linecap="round" stroke-linejoin="round"/>
<path d="M181.346 237.922L216.74 236.934" stroke="#737999" stroke-width="1.7" stroke-linecap="round" stroke-linejoin="round"/>
<path d="M139.949 472.359L172.024 471.892" stroke="#4C4FD9" stroke-width="1.7" stroke-linecap="round" stroke-linejoin="round"/>
<path d="M172.63 469.565L205.614 469.328" stroke="#4C4FD9" stroke-width="1.7" stroke-linecap="round" stroke-linejoin="round"/>
<path d="M242.358 489.065L207.175 488.388" stroke="#4C4FD9" stroke-width="1.7" stroke-linecap="round" stroke-linejoin="round"/>
<path d="M216.195 475.695L213.163 480.506" stroke="#4C4FD9" stroke-width="1.7" stroke-linecap="round" stroke-linejoin="round"/>
<path d="M221.25 476.771L218.218 481.588" stroke="#4C4FD9" stroke-width="1.7" stroke-linecap="round" stroke-linejoin="round"/>
<path d="M226.646 478.097L223.615 482.914" stroke="#4C4FD9" stroke-width="1.7" stroke-linecap="round" stroke-linejoin="round"/>
<path d="M126.625 283.633C115.256 287.883 106.722 280.311 106.654 272.808C106.585 265.304 109.913 220.533 110.367 216.068" stroke="#C9C9C9" stroke-width="2" stroke-linecap="round" stroke-linejoin="round"/>
<path d="M245.867 117.73C246.458 102.411 228.389 95.4015 220.954 92.3974" stroke="#C9C9C9" stroke-width="2" stroke-linecap="round" stroke-linejoin="round"/>
<path d="M242.335 270.643C243.752 262.476 243.851 240.378 241.456 231.948" stroke="#C9C9C9" stroke-width="2" stroke-linecap="round" stroke-linejoin="round"/>
</g>
<defs>
<clipPath id="clip0">
<rect width="171" height="496" fill="white" transform="translate(102)"/>
</clipPath>
</defs>
</svg>
