<svg width="40" height="40" viewBox="0 0 40 40" fill="none" xmlns="http://www.w3.org/2000/svg">
<path d="M8 0C3.58172 0 0 3.58172 0 8V18H21.1716L16.5858 13.4142C15.8047 12.6332 15.8047 11.3668 16.5858 10.5858C17.3668 9.80474 18.6332 9.80474 19.4142 10.5858L27.4142 18.5858C28.1953 19.3668 28.1953 20.6332 27.4142 21.4142L19.4142 29.4142C18.6332 30.1953 17.3668 30.1953 16.5858 29.4142C15.8047 28.6332 15.8047 27.3668 16.5858 26.5858L21.1716 22H0V32C0 36.4183 3.58172 40 8 40H32C36.4183 40 40 36.4183 40 32V8C40 3.58172 36.4183 0 32 0H8Z" fill="#6686D8"/>
</svg>
